<?xml version="1.0" encoding="UTF-8"?>
<!DOCTYPE svg PUBLIC "-//W3C//DTD SVG 1.1//EN" "http://www.w3.org/Graphics/SVG/1.1/DTD/svg11.dtd">
<!-- Creator: CorelDRAW X8 -->
<svg xmlns="http://www.w3.org/2000/svg" xml:space="preserve" width="210mm" height="89.7466mm" version="1.1" style="shape-rendering:geometricPrecision; text-rendering:geometricPrecision; image-rendering:optimizeQuality; fill-rule:evenodd; clip-rule:evenodd"
viewBox="0 0 21000 8975"
 xmlns:xlink="http://www.w3.org/1999/xlink">
 <defs>
  <style type="text/css">
   <![CDATA[
    .fil3 {fill:#073009}
    .fil4 {fill:#13731A}
    .fil0 {fill:#728510}
    .fil2 {fill:#BDBD1C}
    .fil1 {fill:#BDBD1C}
   ]]>
  </style>
 </defs>
 <g id="Capa_x0020_1">
  <metadata id="CorelCorpID_0Corel-Layer"/>
  <path class="fil0" d="M21000 6684l0 575c0,945 -773,1718 -1718,1718l-8713 0c-127,-71 -247,-152 -359,-242 -97,88 -200,169 -309,242l-6496 0c-544,-549 -881,-1304 -881,-2138 0,-1677 1359,-3036 3036,-3036 168,0 333,14 493,40 133,-375 467,-653 873,-706 127,-1091 1054,-1938 2179,-1938 965,0 1785,625 2078,1492 17,-1 33,-1 50,-1 682,0 1235,552 1235,1234 0,139 -23,273 -66,397 491,123 924,388 1254,750 129,-333 432,-580 798,-627 117,-1009 974,-1792 2015,-1792 893,0 1651,577 1922,1379 15,0 31,-1 46,-1 631,0 1142,511 1142,1142 0,128 -21,252 -61,367 639,159 1173,581 1482,1145z"/>
  <path class="fil1" d="M10445 8977l-5754 0c-10,-16 -20,-32 -29,-47 -7,15 -13,31 -21,47l-2910 0c-952,0 -1731,-779 -1731,-1731l0 -6412c653,-481 1459,-765 2332,-765 1526,0 2849,869 3502,2140 138,-34 283,-51 432,-51 1019,0 1846,826 1846,1845 0,275 -60,535 -168,769 1628,164 2892,1375 2892,2845 0,492 -142,955 -391,1360z"/>
  <path class="fil2" d="M21000 2398l0 4861c0,945 -773,1718 -1718,1718l-4628 0c-2,-8 -4,-15 -6,-22 -340,-1325 458,-2674 1783,-3014 229,-59 458,-84 683,-77 46,-499 399,-938 911,-1069 177,-45 355,-50 523,-19 21,-1062 743,-2024 1823,-2301 210,-54 422,-79 629,-77z"/>
  <path class="fil3" d="M21000 1881l0 5378c0,343 -102,663 -277,932 -111,161 -244,305 -396,429 -290,223 -652,357 -1045,357l-17564 0c-945,0 -1718,-773 -1718,-1718l0 -1012c866,303 2037,-175 2342,-785 1430,-2860 -575,-3654 -2342,-3841l0 -1057c5295,-324 6800,5786 7042,5864 495,157 1077,-160 1731,-1366 1341,-2474 3255,-2385 3239,-2367 -1194,1418 -1177,2640 -182,3728 469,512 739,637 840,536 101,-101 -20,-385 -51,-931 -30,-546 30,-1355 395,-2053 669,-1284 2296,-1976 3682,-1457 242,91 -142,111 -567,607 -425,496 -890,1467 -627,2195 611,1693 2565,1704 3262,749 1251,-1715 190,-5292 -2129,-5726 -1304,-243 2357,-1154 4365,1538z"/>
  <path class="fil4" d="M21000 5538l0 1479 0 242 0 1716 -2337 0 0 -14 -16326 0 0 14 -2337 0 0 -1716 0 -242 0 -4044c1685,-2394 4886,-1604 3766,-1395 -1965,368 -2864,3399 -1804,4852 591,809 2246,800 2764,-634 223,-618 -171,-1441 -531,-1861 -360,-420 -686,-437 -480,-514 1174,-440 2553,147 3120,1234 309,592 360,1278 334,1741 -25,462 -128,702 -42,788 85,86 314,-20 711,-454 843,-922 858,-1957 -154,-3159 -14,-15 1609,-91 2745,2006 554,1022 1047,1290 1466,1157 218,-69 1633,-5867 6786,-4864 309,60 1200,643 995,797 0,0 -5775,-706 -3798,3249 487,974 3579,1551 2640,-1946 -218,-814 1307,165 1513,317 440,326 705,789 837,1020l132 231z"/>
 </g>
</svg>
