<?xml version="1.0" encoding="UTF-8"?>
<!DOCTYPE svg PUBLIC "-//W3C//DTD SVG 1.1//EN" "http://www.w3.org/Graphics/SVG/1.1/DTD/svg11.dtd">
<!-- Creator: CorelDRAW X8 -->
<svg xmlns="http://www.w3.org/2000/svg" xml:space="preserve" width="613.241mm" height="89.7466mm" version="1.1" style="shape-rendering:geometricPrecision; text-rendering:geometricPrecision; image-rendering:optimizeQuality; fill-rule:evenodd; clip-rule:evenodd"
viewBox="0 0 61324 8975"
 xmlns:xlink="http://www.w3.org/1999/xlink">
 <defs>
  <style type="text/css">
   <![CDATA[
    .fil3 {fill:#073009}
    .fil4 {fill:#13731A}
    .fil0 {fill:#728510}
    .fil2 {fill:#BDBD1C}
    .fil1 {fill:#BDBD1C}
   ]]>
  </style>
 </defs>
 <g id="Capa_x0020_1">
  <metadata id="CorelCorpID_0Corel-Layer"/>
  <g id="_2905649018976">
   <path class="fil0" d="M41162 6684l0 575c0,917 -728,1672 -1634,1716l-8800 0c-126,-70 -245,-151 -356,-240 -96,87 -198,167 -306,240l-6501 0c-543,-549 -879,-1303 -879,-2136 0,-1677 1359,-3036 3036,-3036 168,0 333,14 493,40 133,-375 467,-653 873,-706 127,-1091 1054,-1938 2179,-1938 965,0 1785,625 2078,1492 17,-1 34,-1 50,-1 682,0 1235,552 1235,1234 0,139 -23,273 -66,397 491,123 924,388 1254,750 129,-333 432,-580 798,-627 117,-1009 974,-1792 2015,-1792 893,0 1651,577 1922,1379 15,0 31,-1 46,-1 631,0 1142,511 1142,1142 0,128 -21,252 -61,367 639,159 1173,581 1482,1145z"/>
   <path class="fil1" d="M24851 8975c-9,-15 -18,-30 -27,-45 -6,15 -13,30 -20,45l-2995 0c-913,-45 -1647,-805 -1647,-1729l0 -6412c653,-481 1459,-765 2332,-765 1526,0 2849,869 3502,2140 138,-34 283,-51 432,-51 1019,0 1846,826 1846,1845 0,275 -60,535 -168,769 1628,164 2892,1375 2892,2845 0,491 -141,954 -390,1358l-5757 0z"/>
   <path class="fil2" d="M41162 2398l0 4861c0,917 -728,1672 -1634,1716l-4712 0c-2,-7 -4,-14 -6,-20 -340,-1325 458,-2674 1783,-3014 229,-59 458,-84 683,-77 46,-499 399,-938 911,-1069 177,-45 355,-50 523,-19 21,-1062 743,-2024 1823,-2301 210,-54 422,-79 629,-77z"/>
   <g>
    <path class="fil0" d="M40993 6684l0 575c0,917 728,1672 1634,1716l8800 0c126,-70 245,-151 356,-240 95,87 197,167 305,240l6502 0c543,-549 878,-1303 878,-2136 0,-1677 -1359,-3036 -3035,-3036 -168,0 -333,14 -493,40 -133,-375 -468,-653 -873,-706 -127,-1091 -1054,-1938 -2179,-1938 -966,0 -1786,625 -2078,1492 -17,-1 -34,-1 -51,-1 -681,0 -1234,552 -1234,1234 0,139 23,273 65,397 -490,123 -924,388 -1253,750 -129,-333 -432,-580 -798,-627 -117,-1009 -975,-1792 -2015,-1792 -893,0 -1651,577 -1922,1379 -16,0 -31,-1 -46,-1 -631,0 -1142,511 -1142,1142 0,128 21,252 60,367 -638,159 -1173,581 -1481,1145z"/>
    <path class="fil1" d="M57303 8975c10,-15 19,-30 28,-45 6,15 13,30 19,45l2995 0c368,-18 706,-152 979,-365l0 -8173c-505,-236 -1069,-368 -1663,-368 -1526,0 -2850,869 -3502,2140 -139,-34 -283,-51 -432,-51 -1020,0 -1846,826 -1846,1845 0,275 60,535 168,769 -1628,164 -2892,1375 -2892,2845 0,491 141,954 389,1358l5757 0z"/>
    <path class="fil2" d="M40993 2398l0 4861c0,917 728,1672 1634,1716l4712 0c2,-7 4,-14 6,-20 339,-1325 -459,-2674 -1783,-3014 -229,-59 -459,-84 -684,-77 -46,-499 -398,-938 -911,-1069 -176,-45 -354,-50 -522,-19 -21,-1062 -743,-2024 -1823,-2301 -211,-54 -422,-79 -629,-77z"/>
   </g>
   <g>
    <path class="fil0" d="M0 8617c270,209 604,340 966,358l8800 0c125,-70 244,-151 356,-240 95,87 197,167 305,240l6501 0c544,-549 879,-1303 879,-2136 0,-1677 -1359,-3036 -3036,-3036 -168,0 -332,14 -493,40 -132,-375 -467,-653 -873,-706 -126,-1091 -1053,-1938 -2178,-1938 -966,0 -1786,625 -2079,1492 -16,-1 -33,-1 -50,-1 -682,0 -1234,552 -1234,1234 0,139 23,273 65,397 -490,123 -924,388 -1254,750 -128,-333 -432,-580 -798,-627 -117,-1009 -974,-1792 -2014,-1792 -893,0 -1652,577 -1922,1379 -16,0 -31,-1 -47,-1 -630,0 -1141,511 -1141,1142 0,128 21,252 60,367 -298,75 -573,206 -813,382l0 2696z"/>
    <path class="fil1" d="M15642 8975c9,-15 18,-30 27,-45 7,15 13,30 20,45l2995 0c914,-45 1647,-805 1647,-1729l0 -6412c-652,-481 -1458,-765 -2331,-765 -1527,0 -2850,869 -3502,2140 -139,-34 -284,-51 -433,-51 -1019,0 -1845,826 -1845,1845 0,275 60,535 167,769 -1627,164 -2892,1375 -2892,2845 0,491 141,954 390,1358l5757 0z"/>
    <path class="fil2" d="M0 8617c270,209 604,340 966,358l4712 0c2,-7 4,-14 5,-20 340,-1325 -458,-2674 -1783,-3014 -228,-59 -458,-84 -683,-77 -46,-499 -398,-938 -911,-1069 -177,-45 -354,-50 -523,-19 -20,-1049 -725,-2000 -1783,-2291l0 6132z"/>
   </g>
  </g>
  <g>
   <path class="fil3" d="M41035 7905c41,101 91,196 150,286 111,161 244,305 396,429 269,207 601,337 961,355l17296 0 436 0 1050 0 0 -428 0 -1053 0 -1177c-1845,-91 -4879,-2620 0,-5677l0 -95c-5171,-206 -6218,5806 -6458,5883 -494,157 -1077,-160 -1730,-1366 -1342,-2474 -3256,-2385 -3240,-2367 1194,1418 1177,2640 182,3728 -468,512 -738,637 -840,536 -101,-101 21,-385 51,-931 30,-546 -30,-1355 -395,-2053 -669,-1284 -2296,-1976 -3681,-1457 -243,91 141,111 566,607 425,496 890,1467 627,2195 -611,1693 -2565,1704 -3262,749 -1251,-1715 -190,-5292 2129,-5726 548,-102 219,-322 -495,-343l-228 0c-968,28 -2444,404 -3515,1719 -1071,-1315 -2547,-1691 -3515,-1719l-228 0c-714,21 -1043,241 -495,343 2319,434 3380,4011 2129,5726 -697,955 -2651,944 -3262,-749 -263,-728 202,-1699 627,-2195 425,-496 809,-516 567,-607 -1385,-519 -3013,173 -3682,1457 -365,698 -425,1507 -395,2053 31,546 152,830 51,931 -101,101 -371,-24 -840,-536 -995,-1088 -1012,-2310 182,-3728 16,-18 -1898,-107 -3239,2367 -654,1206 -1236,1523 -1731,1366 -242,-78 -1305,-6200 -6599,-5877 5394,3288 1592,5992 -189,5755l0 -59c-40,14 -83,26 -127,36 18,4 36,8 54,11 -63,-12 -124,-27 -181,-47l0 59c-1781,237 -5583,-2467 -189,-5755 -5294,-323 -6356,5799 -6599,5877 -494,157 -1077,-160 -1730,-1366 -1342,-2474 -3256,-2385 -3240,-2367 1194,1418 1177,2640 182,3728 -468,512 -738,637 -840,536 -101,-101 21,-385 51,-931 30,-546 -30,-1355 -395,-2053 -669,-1284 -2296,-1976 -3681,-1457 -243,91 141,111 566,607 425,496 890,1467 627,2195 -611,1693 -2565,1704 -3262,749 -1251,-1715 -190,-5292 2129,-5726 546,-102 222,-320 -486,-343l-245 0c-836,25 -2047,311 -3050,1233l0 6217 0 1093 0 432 1050 0 765 0 16966 0c681,-33 1261,-467 1508,-1070 247,603 827,1037 1508,1070l17732 0c360,-18 691,-148 961,-355 151,-124 284,-268 395,-429 59,-90 109,-185 150,-286zm-20619 -1599c-6,-1 -11,-2 -16,-2l16 2zm-254 0l0 953c0,14 0,29 1,43l0 2 0 1 0 0c0,14 1,27 1,41 0,-14 -1,-27 -1,-41l-1 -999zm2 1042c1,13 2,27 3,40 -1,-13 -2,-27 -3,-40zm3 46c1,12 2,24 4,37 -2,-13 -3,-25 -4,-37zm4 43c2,12 3,24 4,36 -1,-12 -2,-24 -4,-36zm5 43c2,12 3,23 5,34 -2,-11 -3,-22 -5,-34zm7 43c1,11 3,22 5,33 -2,-11 -4,-22 -5,-32l0 -1zm7 46c2,9 4,19 6,29l0 -1c-2,-9 -4,-19 -6,-28zm9 44c2,8 3,16 5,23 -2,-7 -3,-15 -5,-23zm9 42c2,6 4,13 5,19 -1,-6 -3,-13 -5,-19z"/>
  </g>
  <path class="fil4" d="M0 8975l1626 0 0 -14 16326 0 0 14 2210 0 127 0 2210 0 0 -14 16326 0 0 14 2210 0 127 0 2210 0 0 -14 16326 0 0 14 1626 0 0 -6773c-1724,-1430 -4031,-806 -3055,-624 1965,368 2864,3399 1804,4852 -591,809 -2246,800 -2764,-634 -223,-618 171,-1441 531,-1861 360,-420 686,-437 480,-514 -1174,-440 -2552,147 -3120,1234 -309,592 -360,1278 -334,1741 25,462 128,702 43,788 -86,86 -315,-20 -712,-454 -843,-922 -857,-1957 154,-3159 14,-15 -1609,-91 -2745,2006 -554,1022 -1047,1290 -1466,1157 -218,-69 -1633,-5867 -6786,-4864 -309,60 -1200,643 -995,797 0,0 5775,-706 3798,3249 -487,974 -3579,1551 -2640,-1946 218,-814 -1307,165 -1513,317 -440,326 -705,789 -837,1020l-68 120 -69 -120c-132,-231 -397,-694 -837,-1020 -206,-152 -1731,-1131 -1513,-317 939,3497 -2153,2920 -2640,1946 -1977,-3955 3798,-3249 3798,-3249 205,-154 -686,-737 -995,-797 -5153,-1003 -6568,4795 -6786,4864 -419,133 -912,-135 -1466,-1157 -1136,-2097 -2759,-2021 -2745,-2006 1012,1202 997,2237 154,3159 -397,434 -626,540 -711,454 -86,-86 17,-326 42,-788 26,-463 -25,-1149 -334,-1741 -567,-1087 -1946,-1674 -3120,-1234 -206,77 120,94 480,514 360,420 754,1243 531,1861 -518,1434 -2173,1443 -2764,634 -1060,-1453 -161,-4484 1804,-4852 1106,-207 -2002,-979 -3702,1308 -1701,-2287 -4809,-1515 -3703,-1308 1965,368 2864,3399 1804,4852 -591,809 -2246,800 -2764,-634 -223,-618 171,-1441 531,-1861 360,-420 686,-437 480,-514 -1174,-440 -2552,147 -3120,1234 -309,592 -360,1278 -334,1741 25,462 128,702 43,788 -86,86 -315,-20 -712,-454 -843,-922 -857,-1957 154,-3159 14,-15 -1609,-91 -2745,2006 -554,1022 -1047,1290 -1466,1157 -218,-69 -1633,-5867 -6786,-4864 -309,60 -1200,643 -995,797 0,0 5775,-706 3798,3249 -487,974 -3579,1551 -2640,-1946 218,-814 -1307,165 -1513,317 -94,69 -180,145 -258,224l0 4464z"/>
 </g>
</svg>
